<svg width="483" height="331" viewBox="0 0 483 331" fill="none" xmlns="http://www.w3.org/2000/svg">
<rect width="483" height="331" fill="#1B1E24"/>
<g clip-path="url(#clip0_3013_7702)">
<path d="M241.274 81.2088C237.24 81.2088 234.236 83.1937 234.236 87.9707C234.236 91.5698 236.216 94.0683 241.057 94.0683C245.161 94.0683 247.948 91.6458 247.948 87.822C247.948 83.4888 245.454 81.2088 241.274 81.2088ZM233.206 114.937C232.251 116.111 231.3 117.358 231.3 118.831C231.3 121.767 235.037 122.651 240.172 122.651C244.426 122.651 250.219 122.353 250.219 118.39C250.219 116.035 247.432 115.89 243.91 115.668L233.206 114.937ZM254.912 81.431C256.23 83.1214 257.625 85.473 257.625 88.8527C257.625 97.0079 251.245 101.784 242.007 101.784C239.658 101.784 237.531 101.49 236.213 101.124L233.792 105.017L240.978 105.457C253.665 106.267 261.143 106.635 261.143 116.403C261.143 124.855 253.738 129.628 240.978 129.628C227.705 129.628 222.645 126.248 222.645 120.444C222.645 117.137 224.112 115.377 226.679 112.949C224.258 111.924 223.452 110.088 223.452 108.103C223.452 106.486 224.258 105.017 225.58 103.62C226.899 102.225 228.366 100.827 230.126 99.2111C226.533 97.4481 223.819 93.6273 223.819 88.1896C223.819 79.7413 229.393 73.9391 240.611 73.9391C243.764 73.9391 245.672 74.2299 247.359 74.6735H261.66V80.9171L254.912 81.431Z" fill="white"/>
<path d="M274.568 68.0794C270.387 68.0794 267.968 65.6527 267.968 61.4632C267.968 57.2789 270.387 54.9995 274.568 54.9995C278.822 54.9995 281.242 57.2789 281.242 61.4632C281.242 65.6526 278.822 68.0794 274.568 68.0794ZM265.106 112.233V106.432L268.848 105.919C269.875 105.77 270.021 105.551 270.021 104.446V82.8457C270.021 82.0392 269.802 81.5226 269.066 81.304L265.106 79.9067L265.913 73.9576H281.094V104.447C281.094 105.625 281.165 105.77 282.268 105.919L286.008 106.432V112.234H265.106" fill="white"/>
<path d="M315.007 109.386C311.852 110.927 307.233 112.323 303.051 112.323C294.325 112.323 291.026 108.8 291.026 100.494V81.2453C291.026 80.8054 291.026 80.5102 290.437 80.5102H285.305V73.9714C291.76 73.2347 294.325 70.0013 295.132 61.9929H302.099V72.4296C302.099 72.942 302.099 73.164 302.686 73.164H313.026V80.5101H302.099V98.0693C302.099 102.405 303.127 104.093 307.085 104.093C309.141 104.093 311.265 103.58 313.025 102.919L315.007 109.386Z" fill="white"/>
<path d="M206.35 90.1042L172.817 56.5115C170.888 54.5767 167.756 54.5767 165.824 56.5115L158.861 63.4882L167.693 72.337C169.747 71.6425 172.1 72.1082 173.736 73.7475C175.38 75.397 175.842 77.7751 175.131 79.8391L183.644 88.3678C185.703 87.6567 188.079 88.1161 189.724 89.7666C192.023 92.0694 192.023 95.8008 189.724 98.1042C187.424 100.408 183.7 100.408 181.399 98.1042C179.67 96.3708 179.243 93.826 180.118 91.692L172.18 83.738L172.179 104.669C172.74 104.947 173.268 105.318 173.736 105.784C176.034 108.086 176.034 111.817 173.736 114.123C171.437 116.426 167.711 116.426 165.414 114.123C163.115 111.817 163.115 108.086 165.414 105.784C165.982 105.216 166.639 104.785 167.341 104.497V83.3721C166.639 83.085 165.982 82.6582 165.413 82.0855C163.672 80.3423 163.253 77.7819 164.146 75.6397L155.439 66.9152L132.449 89.949C130.517 91.8853 130.517 95.0231 132.449 96.9581L165.979 130.551C167.91 132.486 171.041 132.486 172.974 130.551L206.349 97.1168C208.281 95.181 208.281 92.0422 206.349 90.107" fill="#F05133"/>
</g>
<path d="M268.837 261.011H268.757C268.797 261.011 268.797 261.051 268.837 261.051H268.877L268.837 261.011ZM268.837 261.051C268.515 261.051 267.672 261.212 266.788 261.212C264.015 261.212 263.05 259.926 263.05 258.238V247.067H268.716C269.038 247.067 269.279 246.786 269.279 246.384V240.316C269.279 239.994 268.998 239.713 268.716 239.713H263.05V232.159C263.05 231.877 262.85 231.717 262.528 231.717H254.813C254.491 231.717 254.331 231.917 254.331 232.159V239.914C254.331 239.914 250.433 240.879 250.192 240.919C249.91 240.999 249.75 241.24 249.75 241.521V246.384C249.75 246.786 250.031 247.067 250.352 247.067H254.29V258.801C254.29 267.521 260.358 268.405 264.497 268.405C266.386 268.405 268.676 267.802 269.038 267.601C269.239 267.521 269.359 267.279 269.359 267.038V261.694C269.359 261.372 269.158 261.131 268.837 261.051ZM353.465 253.215C353.465 246.745 350.853 245.902 348.12 246.183C345.99 246.303 344.262 247.388 344.262 247.388V259.966C344.262 259.966 345.99 261.171 348.602 261.252C352.259 261.332 353.465 260.006 353.465 253.215ZM362.144 252.652C362.144 264.909 358.166 268.405 351.254 268.405C345.388 268.405 342.253 265.431 342.253 265.431C342.253 265.431 342.133 267.079 341.932 267.279C341.811 267.48 341.65 267.561 341.409 267.561H336.145C335.784 267.561 335.462 267.279 335.462 266.958L335.542 227.296C335.542 226.975 335.824 226.694 336.145 226.694H343.74C344.061 226.694 344.343 226.975 344.343 227.296V240.758C344.343 240.758 347.276 238.869 351.576 238.869L351.536 238.789C355.795 238.789 362.144 240.396 362.144 252.652ZM331.002 239.753H323.487C323.085 239.753 322.884 240.035 322.884 240.437V259.845C322.884 259.845 320.915 261.212 318.223 261.212C315.571 261.212 314.767 260.006 314.767 257.314V240.356C314.767 240.035 314.486 239.753 314.165 239.753H306.53C306.208 239.753 305.927 240.035 305.927 240.356V258.64C305.927 266.476 310.307 268.445 316.334 268.445C321.317 268.445 325.336 265.712 325.336 265.712C325.336 265.712 325.537 267.119 325.617 267.32C325.697 267.48 325.938 267.641 326.18 267.641H330.961C331.363 267.641 331.564 267.36 331.564 267.038L331.645 240.356C331.685 240.035 331.363 239.753 331.002 239.753ZM246.374 239.713H238.779C238.458 239.713 238.177 240.035 238.177 240.437V266.637C238.177 267.36 238.659 267.601 239.261 267.601H246.133C246.856 267.601 247.017 267.279 247.017 266.637V240.316C246.977 239.994 246.696 239.713 246.374 239.713ZM242.597 227.618C239.864 227.618 237.654 229.788 237.654 232.56C237.654 235.293 239.824 237.503 242.597 237.503C245.289 237.503 247.459 235.333 247.459 232.56C247.459 229.828 245.289 227.618 242.597 227.618ZM301.507 226.734H293.952C293.631 226.734 293.349 227.015 293.349 227.337V241.923H281.535V227.337C281.535 227.015 281.254 226.734 280.932 226.734H273.338C273.016 226.734 272.735 227.015 272.735 227.337V266.998C272.735 267.32 273.056 267.601 273.338 267.601H280.932C281.254 267.601 281.535 267.32 281.535 266.998V250.041H293.349L293.269 266.998C293.269 267.32 293.55 267.601 293.872 267.601H301.466C301.788 267.601 302.069 267.32 302.069 266.998V227.337C302.109 227.015 301.828 226.734 301.507 226.734ZM234.118 244.294V264.788C234.118 264.909 234.078 265.19 233.917 265.23C233.917 265.23 229.457 268.405 222.103 268.405C213.222 268.405 202.654 265.632 202.654 247.268C202.654 228.904 211.856 225.126 220.857 225.167C228.653 225.167 231.787 226.935 232.269 227.256C232.39 227.457 232.47 227.578 232.47 227.738L231.024 234.128C231.024 234.449 230.702 234.851 230.3 234.73C229.015 234.329 227.086 233.565 222.545 233.565C217.281 233.565 211.655 235.052 211.655 246.906C211.655 258.72 217 260.127 220.857 260.127C224.152 260.127 225.318 259.725 225.318 259.725V251.527H220.054C219.652 251.527 219.37 251.246 219.37 250.925V244.334C219.37 244.013 219.652 243.732 220.054 243.732H233.435C233.837 243.691 234.118 243.973 234.118 244.294Z" fill="white"/>
<path fill-rule="evenodd" clip-rule="evenodd" d="M151.62 215C134.703 215 121 228.703 121 245.62C121 259.162 129.76 270.615 141.936 274.673C143.463 274.914 144.066 274.03 144.066 273.227C144.066 272.503 144.025 270.092 144.025 267.521C136.35 268.927 134.341 265.632 133.738 263.944C133.377 263.06 131.89 260.328 130.604 259.604C129.519 259.042 127.992 257.595 130.564 257.555C132.975 257.515 134.703 259.765 135.265 260.689C138.038 265.31 142.418 264.025 144.186 263.221C144.467 261.252 145.271 259.886 146.155 259.122C139.364 258.359 132.211 255.706 132.211 244.013C132.211 240.678 133.417 237.905 135.346 235.775C135.024 235.012 133.979 231.877 135.667 227.658C135.667 227.658 138.239 226.854 144.106 230.792C146.557 230.109 149.169 229.748 151.741 229.748C154.353 229.748 156.925 230.109 159.376 230.792C165.243 226.814 167.774 227.658 167.774 227.658C169.462 231.877 168.377 235.012 168.096 235.775C170.065 237.905 171.23 240.637 171.23 244.013C171.23 255.747 164.077 258.359 157.246 259.122C158.371 260.087 159.336 261.895 159.336 264.788C159.336 268.887 159.295 272.182 159.295 273.187C159.295 273.99 159.858 274.955 161.385 274.633C173.842 270.414 182.24 258.72 182.24 245.58C182.24 228.703 168.538 215 151.62 215Z" fill="white"/>
<defs>
<clipPath id="clip0_3013_7702">
<rect width="184" height="77" fill="white" transform="translate(131 55)"/>
</clipPath>
</defs>
</svg>
